<svg xmlns="http://www.w3.org/2000/svg" viewBox="0 0 196.8 376.5" class="ico-people"><path d="M89.2 60.8c8.3-.3 15.2-3.5 20.8-9.6 5.6-6.1 8.3-13.3 8-21.6-.3-8.3-3.3-15.3-9.2-21.2C102.9 2.6 95.9-.2 87.6 0c-8.3.3-15.2 3.5-20.8 9.6-5.6 6.1-8.4 13.3-8.4 21.6s3.1 15.3 9.2 21.2c6.1 5.9 13.3 8.7 21.6 8.4zm0 0M190.4 162l-44-24-36-57.6c-6.9-8.5-15.5-12.8-25.6-12.8-6.9 0-13.6 2.9-20 8.8l-54.4 55.2c-1.6 2.1-2.7 4.5-3.2 7.2L0 200.4v1.6c0 3.7 1.3 6.9 4 9.6 2.7 2.7 5.9 4 9.6 4 3.7 0 6.8-1.3 9.2-4 2.4-2.7 3.9-5.6 4.4-8.8l5.6-52.8L52 130.8 34.4 278 3.2 347.6c-1.1 3.2-1.6 6.1-1.6 8.8 0 5.9 2 10.8 6 14.8s8.9 5.7 14.8 5.2c8 0 13.9-3.7 17.6-11.2L73.6 290c0-.5.3-1.5.8-2.8.5-1.3 1.1-2.5 1.6-3.6s.8-2.1.8-3.2l4-36 34.4 118.4c3.7 9.6 10.4 14.1 20 13.6 5.3 0 10-2 14-6s6-8.9 6-14.8c0-.5-.1-1.2-.4-2-.3-.8-.4-1.5-.4-2l-48-164L112 134l13.6 21.6c1.1 1.6 2.4 2.9 4 4l47.2 26.4c3.2 1.1 5.3 1.6 6.4 1.6 3.7 0 6.9-1.5 9.6-4.4 2.7-2.9 4-6.3 4-10 0-4.8-2.1-8.5-6.4-11.2zm0 0"/></svg>