<svg xmlns="http://www.w3.org/2000/svg" viewBox="0 0 200 92.2" class="ico-car"><path d="M0 73.5c1.1 4.4 7.3 5.3 12.4 5.3 1.9 0 3.5-.1 4.2-.2-.3-1.5-.4-3-.4-4.5 0-13.4 10.9-24.3 24.3-24.3s24.3 10.9 24.3 24.3c0 1.1-.1 2.2-.3 3.4 28.9-.6 58.2-1.3 79.9-1.8v-.3-.4-.9c0-13.4 10.9-24.3 24.3-24.3 6.4 0 12.4 2.5 17 6.9 4.4 4.4 7 10.1 7.3 16.3 2.3-1.1 4-2.8 5.2-5.1 3.3-6.4 1.5-15 .6-16.4-1-1.6-1.4-4.7-1.9-10.9v-.2c-.3-3.4-.6-7.2-1.2-10.3-.6-3.1-1.4-3.1-1.8-3.1H191l-.8-.7c-.5-.4-.9-1-1.1-1.8-.8-2.2-5.8-6.3-9.2-9-1.6-1.3-3-2.4-3.7-3.1l-1-1 .2-1.5c.2-1.3.1-2.3-.3-2.8-.2-.2-.5-.3-1-.3-.1 0-.3 0-.9.1l-.2.1c-1.5 0-4-.5-7.7-1.3h-.1C156.4 3.9 140 .5 115.4 0H114C79.2 0 51.9 25.5 51.6 25.7l-1.2 1.1-.4.2c-2.1 1-7.5 2.8-21.3 5.5-8.4 1.7-14.7 3.9-18.7 6.6-3 2-3.8 3.7-3.9 4.3l-.3 1-.9.6c-1.2.9-3.2 3.2-3.5 5.5-.3 2.7-1.1 4.2-1.4 4.9v18.1z"/><path d="M23.8 81.3c2.8 6.4 9.1 10.9 16.6 10.9 7.7 0 14.2-4.8 16.9-11.6.2-.5.4-1.1.5-1.6.2-.5.3-1.1.4-1.7.2-1 .3-2.1.3-3.2 0-10-8.1-18.1-18.1-18.1-10 0-18.1 8.1-18.1 18.1 0 1.3.2 2.7.4 3.9.1.5.3 1.1.4 1.6.3.7.5 1.2.7 1.7zm0 0M151.1 78.5c1.9 7.9 9.1 13.7 17.5 13.7 8.9 0 16.2-6.4 17.8-14.8.1-.5.2-1.1.2-1.7 0-.5.1-1.1.1-1.6 0-10-8.1-18-18.1-18-10 0-18.1 8.1-18.1 18.1v1.1c0 .6.1 1.1.2 1.6.2.5.3 1 .4 1.6zm0 0"/></svg>